<svg width="25" height="24" viewBox="0 0 25 24" fill="none" xmlns="http://www.w3.org/2000/svg">
<path d="M22.17 6.95003C21.53 4.78003 19.72 2.97003 17.55 2.33003C15.9 1.85003 14.76 1.89003 13.97 2.48003C13.02 3.19003 12.91 4.47003 12.91 5.38003V7.87003C12.91 10.33 14.03 11.58 16.23 11.58H19.1C20 11.58 21.29 11.47 22 10.52C22.61 9.74003 22.66 8.60003 22.17 6.95003Z" fill="#9E86FF"/>
<path d="M19.41 13.36C19.15 13.06 18.77 12.89 18.38 12.89H14.8C13.04 12.89 11.61 11.46 11.61 9.70003V6.12003C11.61 5.73003 11.44 5.35003 11.14 5.09003C10.85 4.83003 10.45 4.71003 10.07 4.76003C7.72001 5.06003 5.56001 6.35003 4.15001 8.29003C2.73001 10.24 2.21001 12.62 2.66001 15C3.31001 18.44 6.06001 21.19 9.51001 21.84C10.06 21.95 10.61 22 11.16 22C12.97 22 14.72 21.44 16.21 20.35C18.15 18.94 19.44 16.78 19.74 14.43C19.79 14.04 19.67 13.65 19.41 13.36Z" fill="#9E86FF"/>
</svg>
